<?xml version="1.0" standalone="no"?><!DOCTYPE svg PUBLIC "-//W3C//DTD SVG 1.1//EN" "http://www.w3.org/Graphics/SVG/1.1/DTD/svg11.dtd"><svg t="1574403184137" class="icon" viewBox="0 0 1024 1024" version="1.1" xmlns="http://www.w3.org/2000/svg" p-id="9377" xmlns:xlink="http://www.w3.org/1999/xlink" width="200" height="200"><defs><style type="text/css"></style></defs><path d="M632.3712 489.216A221.44 221.44 0 0 0 727.04 307.9168V117.0432a30.72 30.72 0 0 0-30.72-30.72H505.1904a221.4912 221.4912 0 0 0-127.1808 402.8928A388.3008 388.3008 0 0 0 117.76 855.296a30.72 30.72 0 0 0 30.72 30.72h713.6256a30.72 30.72 0 0 0 30.72-30.72 388.1984 388.1984 0 0 0-260.4544-366.08zM505.1904 583.68a55.7056 55.7056 0 0 1-55.296-49.664 324.8128 324.8128 0 0 1 47.2064-4.608h16.2304a325.4784 325.4784 0 0 1 47.2064 4.608 55.7568 55.7568 0 0 1-55.3472 49.664zM345.0368 307.9168a160.3584 160.3584 0 0 1 160.1536-160.1536H665.6v160.1536a160.3072 160.3072 0 0 1-152.2688 159.9488h-15.7696a160.3584 160.3584 0 0 1-152.5248-159.9488zM180.48 824.576a326.8608 326.8608 0 0 1 209.92-274.432 117.76 117.76 0 0 0 84.224 90.7776V752.64a30.72 30.72 0 0 0 61.44 0v-111.616a117.76 117.76 0 0 0 84.2752-90.7776 326.8608 326.8608 0 0 1 209.92 274.432z" fill="#666666" p-id="9378"></path></svg>